<mxfile host="app.diagrams.net" modified="2023-10-04T15:30:14.994Z" agent="Mozilla/5.0 (Windows NT 10.0; Win64; x64) AppleWebKit/537.36 (KHTML, like Gecko) Chrome/116.0.0.0 Safari/537.36" version="21.6.6" etag="yGq6xh0c6V0givdDq3lS" type="github">
  <diagram name="Page-1" id="31iKmRMp1Sy-9Hcv7kmK">
    <mxGraphModel>
      <root>
        <mxCell id="0" />
        <mxCell id="1" parent="0" />
      </root>
    </mxGraphModel>
  </diagram>
</mxfile>
